<?xml version="1.0" encoding="UTF-8" standalone="no"?><!DOCTYPE svg PUBLIC "-//W3C//DTD SVG 1.1//EN" "http://www.w3.org/Graphics/SVG/1.1/DTD/svg11.dtd"><svg width="100%" height="100%" viewBox="0 0 1024 1024" version="1.1" xmlns="http://www.w3.org/2000/svg" xmlns:xlink="http://www.w3.org/1999/xlink" xml:space="preserve" xmlns:serif="http://www.serif.com/" style="fill-rule:evenodd;clip-rule:evenodd;stroke-linejoin:round;stroke-miterlimit:2;"><g id="Background"><path d="M67.489,189.399c13.84,-0 145.672,-0.001 173.003,-0.304c1.04,-0.012 1.014,0.276 13.002,0.301c2.504,2.179 2.545,2.115 2.704,2.353c2.076,3.105 0.295,105.267 0.975,108.856c0.672,3.548 1.143,3.37 1.227,6.941c0.045,1.893 1.201,2.995 1.279,3.972c0.627,7.856 2.664,7.231 3.919,13.005c1.534,7.058 14.798,22.729 18.094,24.622c6.333,3.639 8.115,8.658 15.734,11.545c2.226,0.843 14.269,0.483 15.156,0.227c7.345,-2.119 7.766,0.379 14.967,-2.182c0.879,-0.313 19.654,-0.393 20.857,0.053c4.641,1.72 4.888,0.21 8.03,1.123c6.507,1.89 6.541,1.339 7.088,1.532c6.435,2.264 6.676,1.382 12.83,4.357c2.155,1.042 19.788,9.564 25.88,15.012c33.333,29.813 35.046,60.143 35.257,60.73c2.259,6.287 0.007,42.331 1.197,44.928c4.091,8.931 3.787,9.073 4.279,9.771c3.398,4.823 6.125,10.146 7.866,11.995c15.989,16.976 18.662,15.806 21.427,17.659c3.748,2.512 4.009,1.814 8.044,3.992c7.607,4.106 8.099,2.655 16.178,5.681c1.57,0.588 30.207,0.384 31.047,0.104c0.626,-0.208 4.127,-1.375 7.936,-2.231c0.492,-0.111 5.159,-1.16 6.007,-1.926c2.115,-1.913 2.2,-1.721 4.907,-2.348c1.184,-0.274 0.774,-1.033 13.037,-7.791c2.558,-1.41 12.424,-11.893 12.585,-12.15c1.719,-2.739 2.81,-1.784 4.274,-4.772c2.795,-5.708 3.567,-5.207 6.278,-10.883c1.053,-2.204 -1.126,-5.513 2.089,-7.827c1.11,-0.799 0.614,-1.091 0.93,-43.201c0.018,-2.38 2.349,-5.3 2.598,-7.034c1.542,-10.75 9.488,-27.157 13.448,-31.864c3.946,-4.69 2.783,-5.526 7.129,-9.852c6.65,-6.619 13.242,-13.337 14.026,-13.812c1.34,-0.813 15.404,-9.345 16.467,-10.604c2.809,-3.324 4.327,-0.837 9.924,-4.287c2.438,-1.503 2.701,-0.597 5.295,-1.635c6.531,-2.612 6.729,-1.751 9.15,-2.624c6.713,-2.421 7.049,-0.256 13.907,-2.162c0.513,-0.143 16.389,-0.403 17.872,0.157c7.158,2.704 7.64,-0.062 15.005,2.132c0.32,0.095 14.874,0.848 17.046,-0.499c0.767,-0.476 1.446,-1.101 2.258,-1.497c3.329,-1.627 3.088,-1.868 6.092,-4.019c9.664,-6.917 14.738,-14.482 18.455,-18.621c2.115,-2.355 1.581,-5.408 3.548,-7.487c3.848,-4.067 2.874,-4.581 3.953,-7.215c4.399,-10.741 2.75,-11.186 4.026,-15.003c1.257,-3.761 1.107,-3.825 1.107,-81.076c-0,-31.918 -0.758,-32.898 3.613,-36.15c168.364,-0.36 168.27,-0.717 186.005,0.005c0.346,0.228 0.305,0.231 4.137,3.121c0.147,4.079 0.326,9.024 0.326,51.024c0,38.611 0.055,38.524 -0.326,62.005c-0.374,1.123 -1.406,1.95 -1.78,3.073c-0.452,1.359 -1.44,7.25 -1.546,7.884c-0.352,2.099 -5.418,16.305 -5.847,17.011c-3.994,6.57 -3.385,6.868 -7.859,13.112c-10.377,14.484 -24.203,22.968 -27.276,24.609c-6.817,3.642 -6.978,3.329 -7.509,3.74c-3.691,2.858 -4.259,1.463 -8.37,3.462c-5.775,2.808 -6.186,1.475 -11.99,4.023c-4.606,2.022 -6.582,0.667 -8.944,1.171c-10.189,2.172 -10.305,1.335 -11.135,1.684c-4.146,1.742 -10.667,0.236 -12.908,1.172c-6.005,2.509 -13.729,-1.609 -27.82,5.365c-25.837,12.786 -34.232,31.099 -37.806,36.873c-1.309,2.115 -7.179,23.944 -7.188,25.818c-0.046,10.209 -0.015,13.025 0.323,13.775c2.52,5.6 0.026,7.003 1.275,10.322c2.298,6.105 1.249,6.288 1.487,6.791c4.43,9.356 4.056,9.463 4.454,10.265c14.071,28.362 34.456,34.567 36.669,36.432c3.769,3.177 21.947,6.391 22.631,6.4c15.041,0.186 14.964,0.517 29.965,1.35c0.605,0.034 2.758,1.229 4.051,1.282c5.711,0.232 6.476,1.571 9.962,2.471c1.738,0.449 10.56,2.727 20.903,8.17c0.066,0.035 13.292,8.812 13.669,9.195c5.559,5.65 6.203,4.889 6.546,5.48c1.452,2.5 1.566,2.298 3.868,4.111c1.602,1.261 17.039,22.1 17.679,32.986c0.087,1.487 2.346,5.129 2.516,5.937c0.758,3.609 0.386,3.634 1.98,7.027c0.014,18.04 0.025,17.978 0.005,36.014c-0.183,0.302 -1.707,2.809 -1.842,4.008c-0.008,0.068 0.112,2.533 -0.49,3.897c-3.478,7.873 -1.645,8.477 -5.595,16.205c-2.159,4.225 -4.066,11.878 -6.103,13.105c-2.836,1.71 -3.323,5.272 -5.428,7.479c-17.191,18.02 -24.587,20.413 -28.63,21.483c-0.832,0.22 -2.436,1.804 -2.918,2.052c-10.378,5.342 -23.335,7.077 -25.11,7.821c-4.59,1.923 -40.236,4.763 -45.889,7.299c-9.801,4.397 -10.078,3.657 -10.891,4.11c-27.624,15.377 -33.332,33.817 -34.21,35.551c-2.434,4.805 -0.804,5.221 -1.966,8.011c-7.289,17.504 -2.143,20.756 -3.81,27.022c-1.31,4.924 -1.147,4.928 -1.147,65.948c0,22.389 0.764,22.647 -3.066,32.166c-7.176,0.499 -181.761,0.416 -188.099,0.045c-4.858,-4.633 -3.291,-5.47 -3.29,-12.211c0.02,-103.008 -0.271,-103.367 1.245,-105.085c1.856,-2.103 2.499,-10.728 3.042,-11.94c6.421,-14.334 5.934,-14.525 6.548,-15.743c0.416,-0.825 3.724,-7.387 5.806,-9.984c6.934,-8.651 7.251,-8.391 7.728,-9.227c4.136,-7.249 10.88,-11.023 20.231,-18.694c0.952,-0.781 15.449,-7.118 15.772,-7.187c10.167,-2.183 10.252,-1.524 11.096,-1.837c11.835,-4.394 14.118,-1.348 21.851,-2.459c19.33,-2.776 20.219,1.552 24.958,-1.923c4.735,-3.472 5.513,-0.83 8.969,-2.167c9.802,-3.793 15.127,-7.578 16.325,-8.43c22.656,-16.105 25.026,-27.043 27.614,-30.454c3.464,-4.566 4.338,-12.029 5.994,-16.919c0.869,-2.567 3.65,-19.792 2.462,-23.06c-1.617,-4.448 -0.161,-4.694 -1.177,-7.933c-1.214,-3.869 -0.989,-3.83 -1.095,-7.958c-0.044,-1.715 -2.404,-5.211 -2.568,-6.085c-3.967,-21.136 -29.547,-43.822 -44.401,-47.311c-3.474,-0.816 -2.234,-3.622 -5.035,-3.85c-0.655,-0.053 -4.792,-0.39 -8.015,-1.778c-4.22,-1.817 -33.622,-0.671 -33.848,-0.58c-4.554,1.835 -7.303,0.762 -12.12,1.018c-2.645,0.141 -2.403,1.068 -5.063,1.316c-4.641,0.433 -20.223,8.571 -23.567,11.689c-0.907,0.846 -8.926,8.322 -10.931,10.994c-5.984,7.978 -6.769,10.671 -7.075,11.723c-0.248,0.853 -3.571,4.565 -3.708,6.837c-0.374,6.178 -1.289,5.948 -2.788,12.011c-2.72,11.007 -0.541,17.348 -1.182,34.003c-0.012,0.302 -2.558,7.661 -2.613,9.019c-0.232,5.733 -5.614,16.55 -6.29,17.909c-0.875,1.758 -8.561,17.205 -13.465,20.527c-1.469,0.995 -0.41,1.937 -8.789,10.139c-10.371,10.153 -24.176,15.616 -27.161,17.901c-4.139,3.167 -8.741,2.082 -12.339,4.625c-0.747,0.528 -1.371,1.228 -2.153,1.702c-1.287,0.78 -2.896,-1.689 -5.827,-0.562c-4.342,1.67 -4.561,0.597 -9,2.018c-2.136,0.684 -2.038,0.664 -4.174,1.409c-1.272,0.444 -3.923,-1.146 -4.944,-1.183c-10.233,-0.369 -10.096,-1.277 -10.98,-1.288c-9.691,-0.123 -9.44,-1.86 -19.042,-2.704c-1.948,-0.171 -4.237,-2.771 -6.917,-3.594c-7.961,-2.444 -17.269,-10.134 -22.973,-13.03c-9.714,-4.932 -23.097,-25.738 -23.148,-25.796c-4.243,-4.79 -3.074,-5.424 -5.929,-11.07c-11.971,-23.679 -8.13,-32.826 -8.749,-56.026c-0.057,-2.134 -1.11,-1.826 -1.259,-3.981c-0.693,-10.047 -3.374,-12.334 -6.958,-21.01c-1.726,-4.177 -3.676,-5.338 -4.078,-5.944c-7.092,-10.691 -8.458,-9.385 -18.053,-17.92c-1.696,-1.509 -13.648,-6.914 -14.893,-7.082c-0.66,-0.089 -5.511,-0.743 -8.133,-1.755c-7.103,-2.744 -7.671,0.452 -14.928,-2.031c-0.845,-0.289 -14.133,-0.244 -14.876,-0.011c-8.265,2.587 -8.488,1.139 -9.185,1.397c-4.276,1.579 -4.334,0.996 -8.882,1.073c-0.115,0.002 -10.856,2.627 -11.831,3.481c-6.139,5.375 -7.386,3.143 -14.251,7.68c-3.873,2.559 -3.394,3.082 -7.233,5.655c-9.977,6.685 -7.76,8.831 -15.344,16.792c-1.96,2.058 -2.375,6.191 -3.531,7.487c-3.093,3.469 -2.192,3.906 -3.952,8.121c-4.419,10.584 -1.675,11.3 -3.327,14.819c-1.338,2.85 -1.526,25.365 0.092,29.402c3.138,7.828 1.513,8.271 4.142,13.946c10.447,22.549 17.919,26.171 20.608,28.454c9.219,7.827 8.419,9.062 19.571,13.584c10.6,4.298 10.974,2.906 11.886,3.282c11.998,4.945 22.224,1.016 28.187,2.541c9.709,2.484 10.779,0.373 14.949,1.234c6.079,1.255 5.85,2.228 12.063,2.516c2.116,0.098 1.832,0.997 3.985,1.234c7.673,0.845 6.824,3.012 11.984,5.084c3.762,1.511 3.351,2.104 7.1,3.768c4.657,2.068 3.84,3.141 7.984,6.097c6.483,4.625 5.462,5.663 9.069,8.925c0.667,0.604 5.604,5.068 7.521,8.362c18.391,31.606 14.528,33.226 17.843,42.037c0.947,2.517 0.834,2.585 0.834,87.779c0,23.212 0.622,23.572 -2.275,28.203c-4.815,0.384 -183.367,0.459 -189.117,-0.033c-0.822,-3.202 -1.364,-2.958 -1.827,-6.194c-0.139,-0.974 -1.231,-1.63 -1.244,-3.975c-0.037,-6.72 0.124,-6.7 0.007,-84.001c-0.006,-4.28 -1.195,-4.082 -1.271,-6.965c-0.241,-9.226 0.951,-10.881 -1.139,-16.21c-1.255,-3.2 0.417,-3.758 -2.126,-7.092c-2.144,-2.812 0.482,-3.882 -2.4,-7.689c-0.862,-1.139 0.602,-1.922 -8.233,-15.849c-2.072,-3.266 -5.322,-6.556 -5.838,-7.079c-0.64,-0.648 -0.911,-0.273 -9.153,-6.764c-1.911,-1.505 -2.668,-0.372 -4.396,-2.633c-2.129,-2.785 -9.406,-4.644 -10.288,-4.87c-1.93,-0.493 -2.544,-2.194 -9.032,-3.886c-9.341,-2.436 -9.287,-2.508 -19.011,-2.537c-4.129,-0.012 -3.914,-1.047 -8.006,-1.323c-2.172,-0.147 -1.861,-1.174 -3.981,-1.249c-9.191,-0.329 -8.932,-1.77 -18.026,-2.737c-1.159,-0.123 -0.971,-0.764 -14.017,-3.974c-3.716,-0.914 -4.862,-3.715 -11.928,-5.295c-1.962,-0.439 -6.525,-5.334 -12.153,-8.649c-3.474,-2.046 -15.249,-14.887 -16.598,-17.322c-2.266,-4.092 -3.888,-4.811 -8.106,-14.954c-2.47,-5.939 -3.599,-5.599 -3.816,-11.944c-0.063,-1.843 -2.509,-4.956 -2.605,-6.967c-0.154,-3.212 -0.357,-3.141 -1.902,-6.005c-0.007,-18.588 -0.012,-18.498 -0.007,-37.019c2.73,-4.519 1.59,-4.874 3.404,-9.92c2.635,-7.33 1.372,-7.798 6.817,-18.022c5.632,-10.575 15.687,-20.139 17.294,-21.667c10.603,-10.085 12.133,-8.048 16.573,-12.436c2.054,-2.03 2.271,-1.677 4.236,-3.778c1.868,-1.998 2.787,0.267 8.633,-2.529c6.042,-2.889 19.573,-5.838 21.308,-6.216c1.07,-0.233 1.427,-1.102 3.886,-1.122c5.131,-0.041 5.204,0.637 10.075,-1.04c3.645,-1.255 7.709,1.954 10.946,0.832c7.776,-2.696 8.245,-0.067 16.123,-2.698c8.252,-2.756 8.86,-1.04 11.807,-3.443c2.778,-2.265 8.574,-2.803 16.282,-9.689c0.345,-0.308 3.649,-1.641 8.581,-7.408c1.778,-2.08 0.492,-3.233 3.095,-4.188c2.508,-0.92 12.129,-13.533 16.139,-28.649c1.332,-5.023 1.413,-9.206 1.429,-10.016c0.036,-1.841 3.221,-10.733 0.429,-16.953c-1.625,-3.621 1.49,-4.439 -1.498,-12.19c-0.697,-1.808 0.899,-2.235 -1.803,-7.663c-1.742,-3.499 -0.569,-3.903 -2.701,-7.123c-6.708,-10.129 -4.057,-12.38 -22.257,-27.612c-1.558,-1.304 -8.414,-7.041 -21.809,-13.008c-3.238,-1.442 -10.884,-1.552 -11.839,-1.566c-2.644,-0.038 -3.564,-1.233 -4.973,-1.268c-7.657,-0.189 -8.01,0.859 -13.208,-1.125c-4.445,-1.697 -4.872,1.5 -15.861,-1.34c-0.717,-0.185 -8.118,-0.164 -8.825,-0.489c-3.916,-1.796 -3.803,-2.054 -8.164,-2.392c-1.107,-0.086 -4.997,-3.674 -11.972,-5.255c-3.284,-0.744 -2.66,-2.306 -6.028,-2.623c-3.917,-0.368 -2.593,-2.673 -13.75,-9.715c-2.75,-1.736 -7.971,-8.782 -12.404,-13.522c-6.672,-7.133 -5.758,-7.748 -10.783,-16.182c-0.311,-0.523 0.049,-0.635 -2.961,-7.006c-2.07,-4.381 -3.122,-15.139 -6.223,-18.952c0.041,-29.53 -0.701,-106.632 0.011,-114.023c0.492,-0.79 0.311,-1.614 4.138,-4.137Z" style="fill:#f0b914;fill-opacity:1;"/></g></svg>